<?xml version="1.0" encoding="utf-8"?>
<?xml-stylesheet type="text/xsl" href="rss1.xsl"?>
<rss version="2.0" xmlns:atom="http://www.w3.org/2005/Atom" xmlns:content="http://purl.org/rss/1.0/modules/content/" xmlns:dc="http://purl.org/dc/elements/1.1/" xmlns:media="http://search.yahoo.com/mrss/">
<channel>
 <title>Getty</title>
 <link>http://www.gettyimg.com/</link>
 <atom:link href="http://www.gettyimg.com/" rel="self" type="application/rss+xml" />

 
                <item>
                <title><![CDATA[【HD Live Performances】WEB-RiP - Lil.Nas.X-Glastonbury.2023.DDC.HDR.2160p.H265-SRPX]]></title>
                <link><![CDATA[https://sharemania.us/threads/lil-nas-x-glastonbury-2023-ddc-hdr-2160p-h265-srpx.229675/]]></link>
                <description><![CDATA[<article>
<blockquote class="messageText SelectQuoteContainer ugc baseHtml">
<div style="text-align: center"><img src="https://i.imgur.com/qRXRRJT.jpg" class="bbCodeImage LbImage" alt="[​IMG]" data-url="https://i.imgur.com/qRXRRJT.jpg" style=""> <br>
​</div>
<div class="ToggleTriggerAnchor bbCodeSpoilerContainer">
<button type="button" class="button bbCodeSpoilerButton ToggleTrigger Tooltip JsOnly" data-target="> .SpoilerTarget"><span>Spoiler: <span class="SpoilerTitle">MediaInfo</span></span></button>
<div class="SpoilerTarget bbCodeSpoilerText">General<br>
Unique ID : 92567724675407239660965717763831391269 (0x45A3E5314E9B601A0AAFC3DC9EA46425)<br>
Complete name : D:\Lil.Nas.X-Glastonbury.2023.DDC.HDR.2160p.H265-SRPX.mkv<br>
Format : Matroska<br>
Format version : Version 4<br>
File size : 9.25 GiB<br>
Duration : 54 min 44 s<br>
Overall bit rate : 24.2 Mb/s<br>
Encoded date : UTC 2023-06-27 20:25:17<br>
Writing application : mkvmerge v77.0 ('Elemental') 64-bit<br>
Writing library : libebml v1.4.4 + libmatroska v1.7.1<br>
<br>
Video<br>
ID : 1<br>
Format : HEVC<br>
Format/Info : High Efficiency Video Coding<br>
Format profile : Main 10@L5.1@Main<br>
Codec ID : V_MPEGH/ISO/HEVC<br>
Duration : 54 min 44 s<br>
Bit rate : 24.0 Mb/s<br>
Width : 3 840 pixels<br>
Height : 2 160 pixels<br>
Display aspect ratio : 16:9<br>
Frame rate mode : Constant<br>
Frame rate : 50.000 FPS<br>
Standard : Component<br>
Color space : YUV<br>
Chroma subsampling : 4:2:0 (Type 2)<br>
Bit depth : 10 bits<br>
Bits/(Pixel*Frame) : 0.058<br>
Stream size : 9.18 GiB (99%)<br>
Default : Yes<br>
Forced : No<br>
Color range : Limited<br>
Color primaries : BT.2020<br>
Transfer characteristics : HLG / BT.2020 (10-bit)<br>
Matrix coefficients : BT.2020 non-constant<br>
<br>
Audio<br>
ID : 2<br>
Format : AAC LC<br>
Format/Info : Advanced Audio Codec Low Complexity<br>
Codec ID : A_AAC-2<br>
Duration : 54 min 44 s<br>
Bit rate : 192 kb/s<br>
Channel(s) : 2 channels<br>
Channel layout : L R<br>
Sampling rate : 48.0 kHz<br>
Frame rate : 46.875 FPS (1024 SPF)<br>
Compression mode : Lossy<br>
Delay relative to video : 9 ms<br>
Stream size : 74.1 MiB (1%)<br>
Language : English<br>
Default : Yes<br>
Forced : No</div>
</div><div style="text-align: center"><br>
<div class="bbCodeBlock bbCodeVfcHH HiddenContent">
<div class="attribution type">Hidden Content:</div>
<blockquote>You must either reply or click 'Like' to see the hidden information contained here.</blockquote>
</div></div>
<div class="messageTextEndMarker">&nbsp;</div>
</blockquote>
</article>]]></description>
                <author><![CDATA[mariellisaa]]></author>
                </item>

                </channel></rss>